<svg width="1200" height="700" viewBox="0 0 1200 700" fill="none" xmlns="http://www.w3.org/2000/svg">
  <rect width="1200" height="700" rx="20" fill="#07122E"/>
  <rect x="24" y="24" width="1152" height="72" rx="16" fill="#0B1A3F"/>
  <rect x="44" y="42" width="42" height="38" rx="10" fill="#7C3AED"/>
  <text x="98" y="68" fill="#FFFFFF" font-family="Arial, sans-serif" font-size="38" font-weight="700">Coin</text>
  <text x="190" y="68" fill="#8B5CF6" font-family="Arial, sans-serif" font-size="38" font-weight="700">Dash</text>
  <rect x="880" y="42" width="250" height="36" rx="18" fill="#111C44"/>

  <rect x="24" y="116" width="740" height="80" rx="14" fill="#0B1A3F"/>
  <rect x="52" y="136" width="220" height="42" rx="10" fill="#060C21"/>
  <rect x="288" y="136" width="220" height="42" rx="10" fill="#060C21"/>
  <rect x="524" y="136" width="220" height="42" rx="10" fill="#060C21"/>

  <rect x="24" y="212" width="740" height="330" rx="16" fill="#050B1E"/>
  <rect x="52" y="244" width="170" height="42" rx="10" fill="#0F1E48"/>
  <rect x="620" y="244" width="50" height="40" rx="8" fill="#1F2D53"/>
  <rect x="678" y="244" width="50" height="40" rx="8" fill="#111C44"/>

  <path d="M80 470 C180 410 300 430 420 400 C520 375 630 395 732 370 L732 520 L80 520 Z" fill="url(#g1)" opacity="0.95"/>

  <rect x="24" y="560" width="740" height="116" rx="16" fill="#050B1E"/>
  <text x="52" y="612" fill="#FFFFFF" font-family="Arial, sans-serif" font-size="38" font-weight="700">Market Value</text>

  <rect x="784" y="116" width="392" height="280" rx="16" fill="#0B1A3F"/>
  <text x="812" y="170" fill="#FFFFFF" font-family="Arial, sans-serif" font-size="40" font-weight="700">Market Overview</text>
  <rect x="812" y="198" width="160" height="90" rx="12" fill="#050B1E"/>
  <rect x="988" y="198" width="160" height="90" rx="12" fill="#050B1E"/>
  <rect x="812" y="302" width="160" height="70" rx="12" fill="#050B1E"/>
  <rect x="988" y="302" width="160" height="70" rx="12" fill="#050B1E"/>

  <rect x="784" y="412" width="392" height="264" rx="16" fill="#0B1A3F"/>
  <text x="812" y="466" fill="#FFFFFF" font-family="Arial, sans-serif" font-size="40" font-weight="700">Market Highlights</text>
  <rect x="812" y="496" width="340" height="56" rx="10" fill="#050B1E"/>
  <rect x="812" y="564" width="340" height="56" rx="10" fill="#050B1E"/>

  <defs>
    <linearGradient id="g1" x1="406" y1="370" x2="406" y2="520" gradientUnits="userSpaceOnUse">
      <stop stop-color="#8B5CF6"/>
      <stop offset="1" stop-color="#312E81"/>
    </linearGradient>
  </defs>
</svg>
