<svg width="1200" height="700" viewBox="0 0 1200 700" fill="none" xmlns="http://www.w3.org/2000/svg">
  <rect width="1200" height="700" rx="20" fill="#F3F4F6"/>
  <rect x="24" y="24" width="1152" height="72" rx="16" fill="#FFFFFF"/>
  <rect x="48" y="42" width="190" height="36" rx="10" fill="#16A34A"/>
  <rect x="260" y="42" width="220" height="36" rx="18" fill="#F3F4F6"/>
  <rect x="980" y="40" width="172" height="40" rx="20" fill="#16A34A"/>

  <rect x="24" y="120" width="860" height="556" rx="20" fill="#FFFFFF" stroke="#E5E7EB"/>
  <rect x="912" y="120" width="264" height="556" rx="20" fill="#FFFFFF" stroke="#E5E7EB"/>

  <text x="48" y="178" fill="#111827" font-family="Arial, sans-serif" font-size="46" font-weight="700">Projects</text>

  <rect x="48" y="212" width="252" height="440" rx="16" fill="#F9FAFB" stroke="#E5E7EB"/>
  <rect x="328" y="212" width="252" height="440" rx="16" fill="#F9FAFB" stroke="#E5E7EB"/>
  <rect x="608" y="212" width="252" height="440" rx="16" fill="#F9FAFB" stroke="#E5E7EB"/>

  <rect x="64" y="230" width="220" height="50" rx="10" fill="#E5E7EB"/>
  <rect x="344" y="230" width="220" height="50" rx="10" fill="#E5E7EB"/>
  <rect x="624" y="230" width="220" height="50" rx="10" fill="#E5E7EB"/>

  <rect x="64" y="306" width="220" height="126" rx="12" fill="#FFFFFF" stroke="#E5E7EB"/>
  <rect x="64" y="446" width="220" height="126" rx="12" fill="#FFFFFF" stroke="#E5E7EB"/>
  <rect x="344" y="306" width="220" height="126" rx="12" fill="#FFFFFF" stroke="#E5E7EB"/>
  <rect x="344" y="446" width="220" height="126" rx="12" fill="#FFFFFF" stroke="#E5E7EB"/>

  <circle cx="1006" cy="178" r="84" stroke="#E5E7EB" stroke-width="18" fill="none"/>
  <text x="982" y="190" fill="#16A34A" font-family="Arial, sans-serif" font-size="44" font-weight="700">0%</text>

  <rect x="936" y="356" width="100" height="84" rx="12" fill="#F3F4F6"/>
  <rect x="1048" y="356" width="100" height="84" rx="12" fill="#F3F4F6"/>
  <rect x="936" y="452" width="100" height="84" rx="12" fill="#F3F4F6"/>
  <rect x="1048" y="452" width="100" height="84" rx="12" fill="#F3F4F6"/>

  <text x="64" y="262" fill="#111827" font-family="Arial, sans-serif" font-size="20" font-weight="700">Yet To Start</text>
  <text x="344" y="262" fill="#111827" font-family="Arial, sans-serif" font-size="20" font-weight="700">In Progress</text>
  <text x="624" y="262" fill="#111827" font-family="Arial, sans-serif" font-size="20" font-weight="700">Completed</text>
</svg>
